<svg t="1680326017496" class="icon" viewBox="0 0 1024 1024" version="1.1"
  xmlns="http://www.w3.org/2000/svg" p-id="2104" width="16" height="16">
  <path
    d="M405.76 738.56h-57.6C209.92 738.56 98.56 627.2 98.56 488.96s111.36-249.6 249.6-249.6h76.8L396.8 195.84c-11.52-17.92-6.4-42.24 11.52-52.48 17.92-11.52 42.24-6.4 52.48 11.52l65.28 103.68c7.68 11.52 7.68 26.88 1.28 39.68s-19.2 20.48-33.28 20.48H348.16c-94.72 0-172.8 78.08-172.8 172.8s78.08 172.8 172.8 172.8h57.6c21.76 0 38.4 16.64 38.4 38.4s-17.92 35.84-38.4 35.84zM596.48 846.08c-12.8 0-25.6-6.4-32-17.92L499.2 724.48c-7.68-11.52-7.68-26.88-1.28-39.68s19.2-20.48 33.28-20.48h145.92c94.72 0 172.8-78.08 172.8-172.8s-78.08-172.8-172.8-172.8h-57.6c-21.76 0-38.4-16.64-38.4-38.4s16.64-38.4 38.4-38.4h57.6c138.24 0 249.6 111.36 249.6 249.6s-111.36 249.6-249.6 249.6h-76.8l28.16 43.52c11.52 17.92 6.4 42.24-11.52 52.48-6.4 6.4-14.08 8.96-20.48 8.96z"
    fill="currentColor" p-id="2105"></path>
</svg>