<svg t="1678371704642" class="icon" viewBox="0 0 1024 1024" version="1.1"
  xmlns="http://www.w3.org/2000/svg" p-id="946" width="16" height="16">
  <path
    d="M526.08 519.68c-120.32 0-217.6-97.28-217.6-217.6s97.28-217.6 217.6-217.6 217.6 97.28 217.6 217.6-97.28 217.6-217.6 217.6z m0-358.4c-78.08 0-140.8 62.72-140.8 140.8s62.72 140.8 140.8 140.8 140.8-62.72 140.8-140.8-62.72-140.8-140.8-140.8z"
    fill="currentColor" p-id="947"></path>
  <path
    d="M526.08 938.24c-81.92 0-158.72-11.52-216.32-33.28-97.28-35.84-117.76-89.6-117.76-128 0-107.52 51.2-208.64 138.24-271.36 16.64-12.8 40.96-8.96 53.76 8.96 12.8 16.64 8.96 40.96-8.96 53.76-66.56 48.64-106.24 126.72-106.24 208.64 0 40.96 103.68 84.48 257.28 84.48 153.6 0 257.28-43.52 257.28-84.48 0-142.08-115.2-257.28-257.28-257.28-21.76 0-38.4-16.64-38.4-38.4s16.64-38.4 38.4-38.4c184.32 0 334.08 149.76 334.08 334.08 0 119.04-179.2 161.28-334.08 161.28z"
    fill="currentColor" p-id="948"></path>
</svg>